<svg height="50" viewBox="0 0 58 58" width="50" xmlns="http://www.w3.org/2000/svg"><g id="Page-1" fill="none" fill-rule="evenodd"><g id="001---Canada-Flag" fill-rule="nonzero"><path id="Shape" d="m18 9.1 2 15.9-2 17.96c-4.0690432.2306558-8.14421587-.3296805-12-1.65l-3-16.31 3-17.55c3.85463565 1.32514663 7.9307598 1.8856137 12 1.65z" fill="#e64c3c"/><path id="Shape" d="m58 7.41v31.78c-.0043952.3159746-.1578827.6112797-.4139576.7964416-.256075.1851619-.5846023.2383905-.8860424.1435584-3.4724927-1.007473-7.0891291-1.4265972-10.7-1.24l-2-16.89 2-16.96c3.8281494-.2148876 7.6635374.26622998 11.32 1.42.4090724.13518751.6839347.51918636.68.95z" fill="#e64c3c"/><path id="Shape" d="m6 5.43v50.57c-.0032948 1.1032019-.89679813 1.9967052-2 2-1.10116878-.0081672-1.99183278-.8988312-2-2v-50.52c1.24348987.71092286 2.77466895.69178312 4-.05z" fill="#95a5a5"/><path id="Shape" d="m18 9.1v33.86c-4.0690432.2306558-8.14421587-.3296805-12-1.65v-33.86c3.85463565 1.32514663 7.9307598 1.8856137 12 1.65z" fill="#e64c3c"/><path id="Shape" d="m46 5.04v33.85c-9.33.36-18.67 3.72-28 4.07v-33.86c9.33-.35 18.67-3.71 28-4.06z" fill="#ecf0f1"/><g fill="#e64c3c"><path id="Shape" d="m58 7.41v31.78c-.0043952.3159746-.1578827.6112797-.4139576.7964416-.256075.1851619-.5846023.2383905-.8860424.1435584-3.4724927-1.007473-7.0891291-1.4265972-10.7-1.24v-33.85c3.8281494-.2148876 7.6635374.26622998 11.32 1.42.4090724.13518751.6839347.51918636.68.95z"/><path id="Shape" d="m27.58 16.81.01-.002v-.01z"/><path id="Shape" d="m42.88 23.37c-.34-.115-.67-.237-1-.357-.29-.1-.36-.245-.26-.556.34-1.078.68-2.153 1.01-3.214.02-.062.04-.123.06-.2-.43.135-.84.262-1.25.4-.63.219-1.26.437-1.89.672-.28.1-.41.054-.53-.186-.18-.38-.35-.761-.52-1.141-.06-.13-.09-.155-.21-.015-.75.941-1.51 1.884-2.27 2.832-.03.035-.06.081-.09.116-.1045396.15746-.2960122.2332513-.48.19-.168848-.0633459-.2572493-.2489887-.2-.42.06-.33.13-.672.19-1 .33-1.736.65-3.459.98-5.182.0120975-.0470879.0188072-.0953976.02-.144.0032146-.0269531-.0039347-.0541206-.02-.076-.2140688.1937885-.4412769.3725478-.68.535-.39.3-.78.606-1.17.9-.28.213-.48.193-.63-.057-.62-1.1-1.25-2.2-1.87-3.3-.02-.036-.07-.066-.03-.124l-.08.016c.04.062-.02.124-.05.169-.61 1.327-1.22 2.654-1.84 3.98-.16.35-.35.447-.67.33-.57-.218-1.13-.441-1.7-.664-.0416672-.0090229-.0798552-.0298527-.11-.06-.06.091-.02.153 0 .219.38 1.9.76 3.793 1.14 5.693.0630196.2005783-.0095094.4189712-.18.542-.1567631.1270258-.3856555.1085383-.52-.042-.77-.6826667-1.54-1.3693333-2.31-2.06-.14-.126-.14-.126-.22.076-.17.426-.34.842-.51 1.268-.12.307-.25.4-.56.376-1.03-.063-2.06-.145-3.1-.254-.0099307.0692793.0041873.1398694.04.2.33.981.67 1.968 1 2.943.11.335.04.483-.28.681s-.65.383-.97.555c-.15.075-.16.116-.03.2.86.609 1.72 1.189 2.58 1.764.92.616 1.85 1.213 2.77 1.8.27.162.29.248.17.6-.19.581-.39 1.153-.59 1.725-.0231941.043858-.0302715.0944615-.02.143.38-.135.77-.263 1.15-.4.581-.2 2.163-.854 3.85-1.567v4.686c0 .5522847.4477153 1 1 1s1-.4477153 1-1v-5.119c2.059.044 4.107.106 4.92.121l.1-.017c-.14-.384-.29-.757-.43-1.121-.07-.187-.14-.374-.21-.551-.11-.279-.09-.373.16-.616 1.32-1.2946667 2.6366667-2.5566667 3.95-3.786.47-.438.94-.88 1.42-1.307.13-.113.11-.151-.03-.196z"/></g><path id="Shape" d="m46 5.04v33.85c-9.33.36-18.67 3.72-28 4.07v-33.86c9.33-.35 18.67-3.71 28-4.06z" fill="#ecf0f1"/><path id="Shape" d="m27.58 16.81.01-.002v-.01z" fill="#e64c3c"/><path id="Shape" d="m42.88 23.37c-.34-.115-.67-.237-1-.357-.29-.1-.36-.245-.26-.556.34-1.078.68-2.153 1.01-3.214.02-.062.04-.123.06-.2-.43.135-.84.262-1.25.4-.63.219-1.26.437-1.89.672-.28.1-.41.054-.53-.186-.18-.38-.35-.761-.52-1.141-.06-.13-.09-.155-.21-.015-.75.941-1.51 1.884-2.27 2.832-.03.035-.06.081-.09.116-.1045396.15746-.2960122.2332513-.48.19-.168848-.0633459-.2572493-.2489887-.2-.42.06-.33.13-.672.19-1 .33-1.736.65-3.459.98-5.182.0120975-.0470879.0188072-.0953976.02-.144.0032146-.0269531-.0039347-.0541206-.02-.076-.2140688.1937885-.4412769.3725478-.68.535-.39.3-.78.606-1.17.9-.28.213-.48.193-.63-.057-.62-1.1-1.25-2.2-1.87-3.3-.02-.036-.07-.066-.03-.124l-.08.016c.04.062-.02.124-.05.169-.61 1.327-1.22 2.654-1.84 3.98-.16.35-.35.447-.67.33-.57-.218-1.13-.441-1.7-.664-.0416672-.0090229-.0798552-.0298527-.11-.06-.06.091-.02.153 0 .219.38 1.9.76 3.793 1.14 5.693.0630196.2005783-.0095094.4189712-.18.542-.1567631.1270258-.3856555.1085383-.52-.042-.77-.6826667-1.54-1.3693333-2.31-2.06-.14-.126-.14-.126-.22.076-.17.426-.34.842-.51 1.268-.12.307-.25.4-.56.376-1.03-.063-2.06-.145-3.1-.254-.0099307.0692793.0041873.1398694.04.2.33.981.67 1.968 1 2.943.11.335.04.483-.28.681s-.65.383-.97.555c-.15.075-.16.116-.03.2.86.609 1.72 1.189 2.58 1.764.92.616 1.85 1.213 2.77 1.8.27.162.29.248.17.6-.19.581-.39 1.153-.59 1.725-.0231941.043858-.0302715.0944615-.02.143.38-.135.77-.263 1.15-.4.581-.2 2.163-.854 3.85-1.567v4.686c0 .5522847.4477153 1 1 1s1-.4477153 1-1v-5.119c2.059.044 4.107.106 4.92.121l.1-.017c-.14-.384-.29-.757-.43-1.121-.07-.187-.14-.374-.21-.551-.11-.279-.09-.373.16-.616 1.32-1.2946667 2.6366667-2.5566667 3.95-3.786.47-.438.94-.88 1.42-1.307.13-.113.11-.151-.03-.196z" fill="#e64c3c"/><path id="Shape" d="m7.92 3.96c0 2.18704761-1.77295239 3.96-3.96 3.96s-3.96-1.77295239-3.96-3.96 1.77295239-3.96 3.96-3.96c2.18681892.00055202 3.95944798 1.77318108 3.96 3.96z" fill="#e4c05c"/></g></g></svg>