<svg id="Layer_1" height="50" viewBox="0 0 512 512" width="50" xmlns="http://www.w3.org/2000/svg" data-name="Layer 1"><path d="m256 22.21-235.5 153.87h64.23v313.71h342.54v-313.71h64.23z" fill="#e2e4ed"/><path d="m212.81 256.8a29.885 29.885 0 1 1 -29.91-29.81 29.853 29.853 0 0 1 29.91 29.81z" fill="#ffd8b7"/><path d="m363.93 255.33a15.54 15.54 0 1 1 0 31.08h-7.75l-.44-.15a29.8 29.8 0 0 0 -6.85-30.93z" fill="#6d7486"/><path d="m348.89 255.33a29.89 29.89 0 1 1 -21.33-8.92 29.656 29.656 0 0 1 21.33 8.92z" fill="#ffd8b7"/><path d="m427.27 66.04v67.36l-.33.5-43.67-28.53v-39.33z" fill="#b0b5ca"/><path d="m387.43 367.34a39.93 39.93 0 0 0 -39.88-39.75l-39.52.02a39.689 39.689 0 0 0 -24.89 8.8 36.378 36.378 0 0 0 -2.93 2.61c.02.42.03.84.03 1.27a24.22 24.22 0 0 1 -24.22 24.21h-.02v19.88l23.76 77.08-.35 28.33h82.21l4.58-77.61 21.25-.01z" fill="#aadab2"/><path d="m231.76 340.33a24.061 24.061 0 0 1 4.51-14.07c-.11-.18-.23-.36-.35-.54a39.915 39.915 0 0 0 -33.03-17.56l-39.52.03a39.936 39.936 0 0 0 -39.82 39.81l.02 54.54 21.26-.01 5.02 86.83v.43h81.93l.48-35.27 23.74-70.14v-19.88a24.215 24.215 0 0 1 -24.24-24.17z" fill="#fae099"/><path d="m20.5 176.08h30.5l220.25-143.906-15.25-9.964z" fill="#c5c8d3"/><path d="m84.73 176.08h30.5v313.71h-30.5z" fill="#c5c8d3"/><path d="m173.04 256.84a29.847 29.847 0 0 1 19.884-28.133 29.829 29.829 0 1 0 0 56.228 29.836 29.836 0 0 1 -19.884-28.095z" fill="#eac2a4"/><path d="m317.7 276.26a29.847 29.847 0 0 1 19.882-28.132 29.844 29.844 0 1 0 -.024 56.224 29.848 29.848 0 0 1 -19.858-28.092z" fill="#eac2a4"/><path d="m331.725 327.6 16.492.008c-.223 0-.444-.016-.667-.016z" fill="#aadab2"/><path d="m315.233 327.606 16.492-.008-15.825-.008c-.223 0-.444.01-.667.016z" fill="#aadab2"/><path d="m163.37 308.19a39.936 39.936 0 0 0 -39.82 39.81l.02 54.54 20-.009-.02-54.531a39.936 39.936 0 0 1 39.82-39.81l20-.015c-.16 0-.317-.015-.477-.015z" fill="#d8bd80"/><path d="m149.85 489.79h20v-.43l-5.02-86.83-19.999.009 5.019 86.821z" fill="#d8bd80"/><path d="m143.57 402.53h1.26v.009h-1.26z" fill="#fae099" transform="matrix(.998 -.058 .058 .998 -23.239 9.099)"/><path d="m231.49 460.76h.009v1.53h-.009z" fill="#81b8f8" transform="matrix(.02 -1 1 .02 -234.508 683.868)"/><path d="m256.02 367.34-.02 44.83 21.25.01 4.58 77.61h20l-4.58-77.61-21.25-.01.02-44.83a39.926 39.926 0 0 1 39.48-39.74l-19.6-.01a39.93 39.93 0 0 0 -39.88 39.75z" fill="#93c198"/><path d="m301.27 424.63.02 36.82-21.53.01-.35 28.33h-47.63l.48-28.27-21.53.01-.02-36.82a40.455 40.455 0 0 1 40.33-40.32l4.96-.01 4.88-.01a40.449 40.449 0 0 1 40.39 40.26z" fill="#81b8f8"/><path d="m256 384.38-4.96.01a40.455 40.455 0 0 0 -40.33 40.32l.02 36.82 20-.009-.02-36.811a40.462 40.462 0 0 1 35.363-40 40.106 40.106 0 0 0 -5.193-.343z" fill="#5f9cce"/><path d="m251.78 489.79.48-28.27-20 .009-.48 28.261z" fill="#5f9cce"/><path d="m280.24 340.29a24.22 24.22 0 0 1 -24.22 24.21h-.02a24.2 24.2 0 1 1 24.21-25.48c.02.42.03.84.03 1.27z" fill="#ffd8b7"/><path d="m251.76 340.33a24.061 24.061 0 0 1 4.51-14.07 24.314 24.314 0 0 1 9.727-8 24.207 24.207 0 1 0 -9.997 46.24h.02a24.182 24.182 0 0 0 9.98-2.156 24.186 24.186 0 0 1 -14.24-22.014z" fill="#eac2a4"/><g fill="#344d6b"><path d="m182.925 220.987h-.025a35.834 35.834 0 1 0 .025 71.668h.026a35.834 35.834 0 1 0 -.025-71.668zm.016 59.668h-.017a23.889 23.889 0 0 1 -23.886-23.817 23.862 23.862 0 0 1 23.869-23.851h.018a23.834 23.834 0 1 1 .016 47.668z"/><path d="m327.586 240.409h-.026a35.834 35.834 0 1 0 .025 71.667h.025a35.927 35.927 0 0 0 32.012-19.67h4.313a21.537 21.537 0 0 0 0-43.074h-12.692a35.756 35.756 0 0 0 -23.657-8.923zm36.349 20.923a9.537 9.537 0 0 1 0 19.074h-.711a36.376 36.376 0 0 0 .248-4.189 35.565 35.565 0 0 0 -3.267-14.885zm-19.444 31.748a23.755 23.755 0 0 1 -16.888 7h-.018a23.834 23.834 0 1 1 -.016-47.667h.017a23.822 23.822 0 0 1 16.9 40.671z"/><path d="m164.859 146.167c-5.765 0-7.625-4.588-10.539-4.588-2.355 0-4.216 3.1-4.216 5.208 0 4.092 6.82 8.06 14.942 8.06 8.989 0 15.5-4.836 15.5-13.764 0-15.623-19.653-14.445-19.653-20.645 0-1.921 1.8-3.719 6.2-3.719 5.084 0 6.262 2.355 8.493 2.355 2.727 0 3.844-3.41 3.844-5.084 0-4.835-9.052-5.455-12.337-5.455-7.75 0-15.871 3.533-15.871 12.833 0 14.507 19.652 13.205 19.652 20.707-.001 2.976-3.163 4.092-6.015 4.092z"/><path d="m186 117.586h8.556v33.664c0 1.984 2.417 2.977 4.835 2.977s4.836-.993 4.836-2.977v-33.664h8.555c1.861 0 2.914-2.046 2.914-4.4 0-2.046-.868-4.278-2.914-4.278h-26.782c-2.046 0-2.914 2.232-2.914 4.278.002 2.354 1.056 4.4 2.914 4.4z"/><path d="m222.52 152.429 2.107-7.75h13.082l2.107 7.75c.372 1.3 1.613 1.8 3.163 1.8 2.666 0 6.2-1.674 6.2-3.968a3.252 3.252 0 0 0 -.123-.683l-11.594-37.817c-.682-2.17-3.472-3.224-6.324-3.224s-5.642 1.054-6.324 3.224l-11.531 37.817a3.26 3.26 0 0 0 -.124.683c0 2.294 3.533 3.968 6.2 3.968 1.549-.002 2.788-.499 3.161-1.8zm8.617-31.805 4.526 16.615h-9.052z"/><path d="m252.838 108.907c-2.666 0-6.571 1.674-6.571 3.968a1.454 1.454 0 0 0 .124.682l12.833 21.264a1.607 1.607 0 0 1 .248.868v15.561c0 1.984 2.418 2.977 4.836 2.977s4.835-.993 4.835-2.977v-15.561a1.616 1.616 0 0 1 .248-.868l12.771-21.264a1.454 1.454 0 0 0 .124-.682c0-2.294-3.905-3.968-6.571-3.968a2.736 2.736 0 0 0 -2.79 1.8l-8.617 15.933-8.68-15.933a2.788 2.788 0 0 0 -2.79-1.8z"/><path d="m302.686 154.227c1.549 0 2.79-.5 3.162-1.8l2.107-7.75h13.082l2.108 7.75c.372 1.3 1.611 1.8 3.162 1.8 2.666 0 6.2-1.674 6.2-3.968a3.26 3.26 0 0 0 -.124-.683l-11.593-37.817c-.683-2.17-3.473-3.224-6.324-3.224s-5.642 1.054-6.323 3.224l-11.533 37.817a3.2 3.2 0 0 0 -.124.683c0 2.294 3.534 3.968 6.2 3.968zm11.779-33.6 4.525 16.615h-9.051z"/><path d="m332.88 117.586h8.556v33.664c0 1.984 2.418 2.977 4.835 2.977s4.835-.993 4.835-2.977v-33.664h8.556c1.86 0 2.914-2.046 2.914-4.4 0-2.046-.868-4.278-2.914-4.278h-26.782c-2.046 0-2.914 2.232-2.914 4.278 0 2.354 1.054 4.4 2.914 4.4z"/><path d="m187.212 204.227c2.418 0 4.836-.993 4.836-2.977v-16.8h12.337v16.8c0 1.984 2.418 2.977 4.836 2.977s4.836-.993 4.836-2.977v-39.43c0-2.046-2.418-2.913-4.836-2.913s-4.836.867-4.836 2.913v15.19h-12.337v-15.19c0-2.046-2.418-2.913-4.836-2.913s-4.836.867-4.836 2.913v39.43c0 1.984 2.418 2.977 4.836 2.977z"/><path d="m236.066 158.907c-8.555 0-15.189 3.968-15.189 14.631v16.429c0 10.664 6.634 14.632 15.189 14.632s15.251-3.968 15.251-14.632v-16.429c0-10.663-6.695-14.631-15.251-14.631zm5.58 31.06c0 4.278-2.108 6.2-5.58 6.2s-5.517-1.922-5.517-6.2v-16.429c0-4.277 2.046-6.2 5.517-6.2s5.58 1.922 5.58 6.2z"/><path d="m270.477 163.742c-2.542-4.463-4.031-4.835-7.5-4.835-2.418 0-4.836 1.3-4.836 4.835v37.508c0 1.984 2.418 2.977 4.836 2.977s4.836-.993 4.836-2.977v-23.868l5.889 10.787a3.179 3.179 0 0 0 3.038 1.8 3.555 3.555 0 0 0 3.224-1.8l5.949-10.169v23.25c0 1.984 2.418 2.977 4.836 2.977s4.836-.993 4.836-2.977v-37.508c0-3.533-2.356-4.835-4.836-4.835-3.472 0-4.96.372-7.5 4.835l-6.386 11.16z"/><path d="m329.188 167.339c1.861 0 2.915-1.985 2.915-4.278 0-1.984-.869-4.154-2.915-4.154h-22.07c-2.108 0-4.216.991-4.216 2.976v39.367c0 1.984 2.108 2.977 4.216 2.977h22.07c2.046 0 2.915-2.17 2.915-4.155 0-2.294-1.054-4.277-2.915-4.277h-16.614v-10.539h9.3c2.046 0 2.914-1.985 2.914-3.658 0-1.985-1.054-3.783-2.914-3.783h-9.3v-10.476z"/><path d="m494.78 171.053-61.509-40.187v-64.827a6 6 0 0 0 -6-6h-44a6 6 0 0 0 -6 6v28.24l-117.99-77.089a6 6 0 0 0 -6.562 0l-235.499 153.863a6 6 0 0 0 3.28 11.023h58.229v307.711a6 6 0 0 0 6 6h342.542a6 6 0 0 0 6-6v-307.711h58.229a6 6 0 0 0 3.282-11.023zm-105.509-99.014h32v50.987l-32-20.907zm-163.391 411.748h-70.339l-4.725-81.6a6 6 0 0 0 -5.99-5.654l-15.251.011-.023-48.544a33.929 33.929 0 0 1 33.824-33.8l39.517-.028h.024a33.845 33.845 0 0 1 26.143 12.417 30.2 30.2 0 0 0 20.94 43.311v8.517a46.369 46.369 0 0 0 -45.288 46.3l.022 36.819a6 6 0 0 0 6 6l15.418-.011zm11.883-143.466a18.215 18.215 0 0 1 18.223-18.207h.014a18.237 18.237 0 0 1 18.237 18.186 18.215 18.215 0 0 1 -18.223 18.2h-.014a18.238 18.238 0 0 1 -18.237-18.179zm36 121.065-.281 22.4h-35.6l.378-22.169a6 6 0 0 0 -6-6.1l-15.526.011-.018-30.819a34.367 34.367 0 0 1 34.35-34.314l9.818-.028h.025a34.445 34.445 0 0 1 34.361 34.263l.018 30.821-15.525.011a6 6 0 0 0 -6 5.924zm86.444-49.554-4.241 71.955h-70.482l.2-16.33 15.6-.012a6 6 0 0 0 6-6l-.022-36.819a46.423 46.423 0 0 0 -45.262-46.233v-8.482a30.228 30.228 0 0 0 24.2-28.234c.232-.2.457-.4.692-.588a33.449 33.449 0 0 1 21.141-7.475l39.517-.028h.025a33.854 33.854 0 0 1 33.848 33.753l.018 38.835-15.253.011a6 6 0 0 0 -5.981 5.647zm67.064-241.756a6 6 0 0 0 -6 6v307.711h-53.285l3.868-65.606 15.6-.012a6 6 0 0 0 6-6l-.021-44.835a45.865 45.865 0 0 0 -45.848-45.746h-.033l-39.517.028a45.913 45.913 0 0 0 -24.172 6.952 30.283 30.283 0 0 0 -27.863-18.454h-.022a30.035 30.035 0 0 0 -19.291 6.962 45.8 45.8 0 0 0 -33.771-14.911h-.032l-39.517.028a45.928 45.928 0 0 0 -45.815 45.807l.021 54.544a6 6 0 0 0 6 6l15.587-.011 4.357 75.255h-52.788v-307.712a6 6 0 0 0 -6-6h-44.074l215.345-140.696 215.345 140.7z"/></g></svg>