<svg height="50" viewBox="0 0 58 58" width="50" xmlns="http://www.w3.org/2000/svg"><g id="026---Putting" fill="none"><path id="Shape" d="m32 19c-.11.46.39-.87-4.6 13.87-.1123625.3454766-.2925487.6650522-.53.94 2.28 18.19 2.13 16.94 2.13 17.5-.7584619-.8407274-1.8377072-1.3206157-2.97-1.3206157s-2.2115381.4798883-2.97 1.3206157c-1-8.05-.86-6.79-1-8v7.69c0-1.1045695-.8954305-2-2-2s-2 .8954305-2 2v-7.62c-.2 1.54 0 0-1 8-.1099185.9077291-.6278088 1.7157762-1.4066648 2.1947727-.778856.4789964-1.7336414.5766449-2.5933352.2652273-1.3791145-.4982106-2.2157748-1.8996167-2-3.35.88-6.81.36-2.87 2.13-16.68-.49-.56-.08 0-5-14.22-.5485069-1.8030553-.19949742-3.7597704.938557-5.2620023 1.1380544-1.5022318 2.9272257-2.3679153 4.811443-2.3279977h12.12c1.7811575-.0396899 3.4851745.7262418 4.6378976 2.0846697 1.1527232 1.358428 1.6311306 3.164377 1.3021024 4.9153303z" fill="#3b97d3"/><path id="Shape" d="m47 13-10.38-4.08c-.3687533-.15708826-.6080816-.51918116-.6080816-.92s.2393283-.76291174.6080816-.92l10.38-4.08z" fill="#e64c3c"/><path id="Shape" d="m11.69 45.38c-7.1 1.28-11.69 3.32-11.69 5.62 0 3 7.77 5.61 18.74 6.55 3.4101345.324202 6.8345761.4743969 10.26.45 16 0 29-3.13 29-7s-13-7-29-7c-1 0 .81-.13-17.31 1.38z" fill="#71c285"/><path id="Shape" d="m46 52.48c-3.59 1.12-10 .32-10-1.48s6.46-2.58 10-1.48c2.67.78 2.67 2.18 0 2.96z" fill="#4c8056"/><path id="Shape" d="m48 3v48c0 .59-.77 1.12-2 1.48v-49.48c0-.55228475.4477153-1 1-1s1 .44771525 1 1z" fill="#ecf0f1"/><circle id="Oval" cx="20" cy="6" fill="#f9c795" r="6"/><path id="Shape" d="m18 33.56c0 11.73.25 7.94-1 17.82-.1099185.9077291-.6278088 1.7157762-1.4066648 2.1947727-.778856.4789964-1.7336414.5766449-2.5933352.2652273-1.3791145-.4982106-2.2157748-1.8996167-2-3.35.88-6.81.36-2.87 2.13-16.68.6029804.756027 1.5334255 1.175032 2.4991917 1.1254547s1.8484144-.5616569 2.3708083-1.3754547z" fill="#ecf0f1"/><path id="Shape" d="m29 51.31c-.7584619-.8407274-1.8377072-1.3206157-2.97-1.3206157s-2.2115381.4798883-2.97 1.3206157c-1-8.05-.86-6.79-1-8v-9.76c.5229748.7993181 1.3953354 1.3018143 2.3491571 1.3531587s1.8750839-.3546006 2.4808429-1.0931587c2.26 18.19 2.11 16.94 2.11 17.5z" fill="#ecf0f1"/><circle id="Oval" cx="26" cy="54" fill="#f5efca" r="4"/><g fill="#c03a2b"><path id="Rectangle-path" d="m46 37.06h2v6h-2z"/><path id="Rectangle-path" d="m46 25.06h2v6h-2z"/><path id="Rectangle-path" d="m46 13.06h2v6h-2z"/></g><path id="Shape" d="m19 31c-.4299159.0011098-.8124279-.2726883-.95-.68l-4-11.95c-.114325-.3394023-.0388967-.7140146.1978719-.9827242.2367685-.2687095.5989064-.3906928.95-.32.3510935.0706929.6378031.3233219.7521281.6627242l4 12c.0839109.2991402.0240169.6202893-.1620812.8690731-.1860982.2487838-.4772582.3969386-.7879188.4009269z" fill="#2980ba"/><path id="Shape" d="m21 31c-.3226006.0008335-.6257891-.154014-.8142345-.4158539-.1884454-.26184-.2389991-.598508-.1357655-.9041461l4-12c.114325-.3394023.4010346-.5920313.7521281-.6627242.3510936-.0706928.7132315.0512905.95.32.2367686.2687096.3121969.6433219.1978719.9827242l-4 12c-.1375721.4073117-.5200841.6811098-.95.68z" fill="#2980ba"/><path id="Shape" d="m21.67 31c-.2783002.8564472-.1571496 1.792611.33 2.55v17.45c0-1.1045695-.8954305-2-2-2s-2 .8954305-2 2v-17.44c.9-1.36.36-2.54 0-3.6.0191212-.7990605.5121615-1.5100066 1.2538321-1.8079799.7416707-.2979732 1.5895336-.1257478 2.1561679.4379799.3755878.3733503.5877672.8804232.59 1.41z" fill="#95a5a5"/><path id="Shape" d="m22 51v5c0 1.1045695-.8954305 2-2 2s-2-.8954305-2-2v-5c0-1.1045695.8954305-2 2-2s2 .8954305 2 2z" fill="#bdc3c7"/></g></svg>