<svg id="Layer_1" enable-background="new 0 0 512 512" height="50" viewBox="0 0 512 512" width="50" xmlns="http://www.w3.org/2000/svg"><g><path d="m456 106v234h-120c-8.84 0-16 7.16-16 16s-7.16 16-16 16h-96c-8.84 0-16-7.16-16-16 0-4.42-1.79-8.42-4.68-11.32-2.9-2.89-6.9-4.68-11.32-4.68h-120v-234c0-16.57 13.43-30 30-30h340c16.57 0 30 13.43 30 30z" fill="#e2e0e0"/><path d="m496 360v26c0 27.61-22.39 50-50 50h-380c-27.61 0-50-22.39-50-50v-26c0-11.05 8.95-20 20-20h140c4.42 0 8.42 1.79 11.32 4.68 2.89 2.9 4.68 6.9 4.68 11.32 0 8.84 7.16 16 16 16h96c8.84 0 16-7.16 16-16s7.16-16 16-16h140c11.05 0 20 8.95 20 20z" fill="#acebe2"/><path d="m496 360v26c0 27.61-22.39 50-50 50h-40c27.61 0 50-22.39 50-50v-26c0-11.05-8.95-20-20-20h40c11.05 0 20 8.95 20 20z" fill="#98d7ce"/><path d="m456 106v234h-40v-234c0-16.57-13.43-30-30-30h40c16.57 0 30 13.43 30 30z" fill="#cecccc"/><path d="m476 324h-4v-218c0-25.364-20.636-46-46-46h-340c-25.364 0-46 20.636-46 46v218h-4c-19.851 0-36 16.149-36 36v26c0 36.393 29.607 66 66 66h380c36.393 0 66-29.607 66-66v-26c0-19.851-16.149-36-36-36zm-404-218c0-7.72 6.28-14 14-14h340c7.72 0 14 6.28 14 14v218h-104c-17.645 0-32 14.355-32 32h-96c0-17.645-14.355-32-32-32h-104zm408 280c0 18.748-15.252 34-34 34h-380c-18.748 0-34-15.252-34-34v-26c0-2.206 1.794-4 4-4h140c0 17.645 14.355 32 32 32h96c17.645 0 32-14.355 32-32h140c2.206 0 4 1.794 4 4z"/><path d="m340.85 199.15c-4.097 0-8.191-1.563-11.316-4.689-19.635-19.643-45.75-30.461-73.534-30.461s-53.899 10.818-73.533 30.461c-6.247 6.25-16.379 6.252-22.628.005s-6.252-16.378-.005-22.627c25.679-25.691 59.831-39.839 96.166-39.839s70.487 14.148 96.166 39.839c6.247 6.25 6.244 16.38-.005 22.627-3.124 3.122-7.219 4.684-11.311 4.684z"/><path d="m301.26 238.74c-4.095 0-8.189-1.562-11.313-4.686-9.064-9.063-21.119-14.054-33.947-14.054s-24.883 4.991-33.946 14.054c-6.248 6.248-16.379 6.248-22.627 0-6.249-6.249-6.249-16.379 0-22.627 15.106-15.107 35.198-23.427 56.573-23.427s41.467 8.32 56.573 23.427c6.249 6.248 6.249 16.379 0 22.627-3.124 3.124-7.219 4.686-11.313 4.686z"/><path d="m256 308c-13.233 0-24-10.767-24-24s10.767-24 24-24 24 10.767 24 24-10.767 24-24 24z"/></g></svg>